<?xml version="1.0" encoding="utf-8"?>
<!-- Generator: Adobe Illustrator 25.0.0, SVG Export Plug-In . SVG Version: 6.00 Build 0)  -->
<svg version="1.1" id="Calque_1" xmlns="http://www.w3.org/2000/svg" xmlns:xlink="http://www.w3.org/1999/xlink" x="0px" y="0px"
	 viewBox="0 0 172.4 86.2" style="enable-background:new 0 0 172.4 86.2;" xml:space="preserve">
<style type="text/css">
	.st0{opacity:0.32;fill:#030303;enable-background:new    ;}
	.st1{fill:#FFFFFF;}
</style>
<g>
	<g>
		<path class="st0" d="M95,50.8c-1.9-1.4-4.5-1.7-6.7-2.2c-2.3-0.6-4.7-1-6.9-1.1c-3.1-0.1-6.2,0.6-9.2,0.6c-1.8,0-3.3-0.8-3.2,1.3
			c0,0.9,0.2,1.8,0.3,2.7v-3.7h12.9c9.4,0,17.3,7,17.3,17c0,9.4-7.9,17-17.3,17H71.5c1.6,0.4,3.4,0.9,5.2,0.8
			c2.2-0.1,4.5,0.3,6.4,0.1c2.2-0.2,4.6-0.6,6.8-1.4c2.2-0.7,4.2-2,5.9-3.6c1.7-1.7,2.3-4.2,3.1-6.7c0.8-2.3,1.4-4.7,1.4-7.2
			s-0.3-5-1.2-7.3C98.1,54.9,96.9,52.4,95,50.8z M101.8,75.6c0,1.5-0.6,4.7,0.1,6.3V69.8C101.9,71.7,101.8,73.6,101.8,75.6z
			 M69.2,75.5c0,0.9,0,1.8,0,2.6v-3.8C69.2,74.6,69.2,75,69.2,75.5z M108,47.8c-1.4,0-2.9,0.1-4.4,0.2c-1.2,0-1.5-0.1-1.6,0.4h8.4
			v33.9h-8.2c0.3,0.4,0.8,0.7,1.4,0.7c1,0,7.1,0.2,7.4-0.7c0.6,0,0.3-10.9,0.3-12.3c0-4.2-0.3-8.4-0.3-12.6c0-2.1,0.4-4.2,0.4-6.3
			C111.5,47.6,111.4,47.9,108,47.8z M130.6,23h4.8C134.1,22.6,132.3,22.7,130.6,23z M89.3,70.9c-1.3,1.2-3.2,1.6-4.8,2.1
			c-1,0.3-4.2,0.8-5.1,0c-1-1-0.2-5.4-0.2-6.8c0-3.1-0.8-6.1-0.8-9.1c0,0,3.7-0.2,4-0.2c2.1,0,4.3,0.7,6,2.1
			c0.2,0.1,0.3,0.3,0.5,0.5c-1.5-1.7-3.8-2.9-6.8-2.9h-4.4v17.8h4.4C85.5,74.3,87.9,72.9,89.3,70.9z M87.5,42.7
			c2.6,0.8,5.9,1.2,8.8,1.3c0.2,0,0.5,0,0.7,0c-3.8,0-8.7-1.2-12.2-2.8C85.4,41.8,86.2,42.3,87.5,42.7z M102,33.8
			c0-4.3-17.4-1.1-17.4-13.2c0-7,5.8-10.5,12.7-10.5c4.5,0,8.7,1.3,11.9,3l-1.4,7.3c0.2,0.1,0.4,0.2,0.6,0.3
			c0.5-2.5,2.5-6.7,0.1-8.8c-2-1.8-5.6-2-8.1-2.1c-2.7-0.2-6,0-9,0.8c-3.1,0.9-5.1,2.5-6.2,5.6c-1.4,3.9-1.3,6.9,0.7,9.4
			s5.2,4.5,8.5,5.4c2,0.6,9.2,2.4,4,4.8c-0.6,0.2-1.1,0.4-1.7,0.4c0.2,0,0.4,0,0.7,0C101,36.1,102,35.3,102,33.8z M106.3,25.5
			c-2.1-1.3-4.6-2.1-6.8-2.5c-1.4-0.3-4.2-0.2-5.1-1.7c-0.9-1.6,1.7-2.3,3-2.7c0.8-0.2,1.6-0.3,2.5-0.3c-1-0.1-2-0.2-3-0.2
			c-2.6,0-4,1.1-4,2.3c0,4.5,17.6,1.1,17.6,12.7c0,5.8-4.3,10.9-13.3,10.9c2.9,0,6.4-0.4,8.7-1.4c2.2-1.1,3.4-1.9,4.6-4
			s1.4-5,0.7-7.5C110.4,28.6,108.4,26.8,106.3,25.5z M91.6,35c-1.9-0.5-3.7-0.9-5.3-1.5c2.8,1.3,5.8,2.2,9,2.5
			C94.1,35.9,92.8,35.4,91.6,35z M85.3,33.1c-0.4,2.9-1.9,5.8-0.7,7.7l1-7.6C85.5,33.2,85.4,33.2,85.3,33.1z M168,10.1v8.1h-16.9V23
			h13.5c-1-0.2-2.3-0.1-3.9-0.1c-2.2,0-4.5-0.5-6.7-0.6c-1.3,0-0.8-2.2-0.6-3.2c0.3-1.4,8.4-0.4,9.9-0.3c3.1,0.3,6.6,0.8,6.7-3.1
			c0-1.6-0.5-3.2-0.6-4.8c-0.2-2.2-1.8-1.8-3.8-1.8c-2.2-0.1-4.5-0.3-6.7-0.3s-4.5,0.4-6.7,0.4c-2,0-10.6-1.2-10.6,1.2
			c-0.6,2.2-0.3,4.7-0.2,7c0.1,2.4,0.9,4.8,0.9,7c0,1.4,0.2,2.8,0.3,4.1V10.1H168z M30.3,66.4c1.4-2.7,2.6-5.9,2.3-9
			s-1.8-6.4-4.5-8.3c-2.5-1.7-5.9-1.9-9-2c-3.1-0.2-6.2-0.2-9,0c-1.7,0.1-5.2-0.4-6.6,0.6c-1.7,1.3-0.4,7.2-0.4,9
			c0,2.7,0.1,5.3,0.1,8L3,72.8c0,2.7-0.2,5.4-0.2,8.1c0,2,2.5,3,5,2.9c2.5,0,5.2-1.1,5-3.2c-0.1-1.8,0.1-3.6,0-5.5
			c-0.1-2.1,0-2.5,1.7-2.4c2.6,0.1,2.7,3.1,3.6,5.1c0.7,1.6,1.3,4.5,3.1,5.4c2.3,1.2,9.5,0.1,9.5,0.1c2.9-0.5-2.1-7.3-3-11
			C27.4,70,29.3,68.2,30.3,66.4z M21.6,82.4L16.9,72h-4.7v10.4H3.7v-34h16.1c7.6,0,11.4,5.4,11.4,11.6c0,5-2.5,8.7-5.9,10.6
			l5.9,11.8H21.6z M159.2,35.9c-0.2,0-0.9,0-1.8,0.1H168v8h-25.4v-3.2c-0.3,1.6-0.9,4.4,0.4,4.4c3.1,0.1,6.3,0,9.4,0
			c2.8,0,5.5-0.9,8.2-0.9c2.2,0,5.6,1.4,7.8,0.8c1.4-0.4,1.5-7.8,0.8-8.9C168.3,34.9,160.6,35.9,159.2,35.9z M81,35.5
			c0.9-2.5,0.9-5.3,1.1-8c0.3-2.7,0.7-5.3,0.6-8s0-5.5,0-8.1c0-2.2-1.3-1.4-3.2-1.5c-1.4-0.1-2.8,0.1-4.2,0c-0.4,0-0.7,0.1-1,0.2
			h7.4v17c0,9.4-6.7,17-16.1,17s-16.1-5.6-16.1-17V10.7l-0.1,0.1c-0.7,1.2-0.1,4.9-0.2,7.6c0,2.6-0.1,5.3,0,7.9s0.5,5.3,1.1,7.8
			c0.8,3.5,2.7,6.2,5.2,7.9s5.8,2,9.2,2.2c3.3,0.1,6.9,0.3,9.8-1.2C77.3,41.5,79.8,38.7,81,35.5z M49.7,56c-4.9,0-8.2,3.4-8.2,9.4
			s3.3,9.4,8.2,9.4s8.2-3.4,8.2-9.4C57.9,59.5,54.6,56,49.7,56z M56.8,69.3c-1.1,2.5-3.2,4.1-6.6,4.1c-3.4,0-6.2-1.2-7.3-3.8
			c-1.1-2.5-0.2-5.9,0.9-8.4c1.1-2.6,3-4.9,6.3-4.9c3.4,0,5.3,2.3,6.4,4.9C57.7,63.7,57.9,66.7,56.8,69.3z M7.1,45.3
			c0.8,0,6,0,5.9-1.4c0-1.7-0.6-3.4-0.9-5.1V44H3.7V10.1h8.5l3.8,7.5c-0.4-1.2-0.8-2.6-1.4-3.8c-1.2-2.3-2.1-4.9-4.1-5
			c-2-0.2-3.9,0.7-5.8,0.8C2.9,9.8,3.1,9,3.1,11c0,2.6,0.1,5.3,0.1,7.9s-0.7,5.3-0.7,7.9c0,2.3,0.6,4.6,0.6,7c0,2.3-0.6,4.6-0.7,6.9
			C2.3,44.7,3.4,45.2,7.1,45.3z M18.2,56.5c1.6,0.3,3.1,1,3.7,2.5c0.8,2.5-1.8,4.3-4,4.3c-2.8,0-5,1.4-5.5-1.9
			c-0.3-1.9-0.7-4.5,1.5-5h-1.7v7.8h5.5c3.3,0,4.7-2,4.7-4.1C22.3,58.5,21.1,56.7,18.2,56.5z M28.5,26c-1.3,2-2.8,4.1-4,6
			c-1.1-2-2.7-4.2-3.9-6.1c-0.6-1.1-1.4-2.1-2.1-3.1L24.1,34L28.5,26z M65.5,36c4.9,0,7.6-4.1,7.6-9v-4.8c-0.2,1.7-0.4,3.5-0.8,5.1
			c-0.8,3.4-2.3,5.7-6.8,5.8c-4.3,0-6-2.2-6.8-5.4c-0.8-3.1-0.7-7-0.6-9.8c0.1-1.7,0-3.2,0-4.9c0-0.9-0.1-1.6-0.3-2.1V27
			C57.9,33.1,60.6,36,65.5,36z M51.3,10.1H57C56.2,10,53.4,9.8,51.3,10.1z M62.8,52.5c-2-2-4.7-3.3-8-3.9c-3-0.6-6.1-0.8-9.1-0.3
			c-3.3,0.6-6.2,1.9-8.2,3.9c-2.1,2-4,4.8-4.7,8.2c-0.6,3.1-0.4,6.5,0.2,9.6c0.7,3.4,2,6.7,4.1,8.7s5.4,2.9,8.7,3.6
			c3,0.6,6.4,1,9.4,0.4c3.3-0.6,6.2-2.4,8.2-4.5c2.1-2,3.1-5.1,3.8-8.4c0.6-3.1,0.8-6.3,0.3-9.3C66.6,57.2,64.9,54.6,62.8,52.5z
			 M49.7,82.4c-9.4,0-17-6.7-17-17c0-10.4,7.6-17,17-17s17,6.7,17,17C66.7,75.8,59.1,82.4,49.7,82.4z M45.6,44H39
			c1.6,0.4,3.3,0.5,4.9,0.4c3.8-0.2,3.5-1.7,3.5-5.2c0-3.1-1.2-6.3-1.2-9.5c0-3.1-0.2-6.3-0.2-9.5c0-3.1,0.7-6.3,0.7-9.5
			c0-2.4-0.8-1.9-2.8-1.9S40,9.6,38,9.6c-0.2,0-0.4,0.1-0.7,0.4h8.3V44z M113.6,66.5c0,2.4,0.4,4.6,0.4,7c0,2-0.3,4.2-0.3,6.2
			c0,1.2,0.1,2.1,0.5,2.7V59.9C114.2,62.1,113.6,64.3,113.6,66.5z M135.4,44.6c2,0,4.9,0,4.7-2.6c0-1.5,0.9-4.6-0.3-5.8
			c-1.1-1.1-8.8-0.4-10.1-0.4c-0.9,0-5.4,0.4-5.5-0.5c-0.1-0.7-0.6-3.8,0.5-3.9c3.3-0.1,7.7,0.5,10.9,0c2.6-0.3,2.2-5.6,1.3-7.4
			c-0.2-0.4-0.6-0.8-1.1-1v7.9h-14v4.9h16.9V44h-25.4V10.1h25.4v7.7l0,0c1.7-0.3,1.6-3.6,1.6-4.6c-0.2-2.4,0.1-3.7-2.5-3.7
			c-2.5-0.1-4.3-0.7-6.7-0.8c1.4-2.1,2.4-4.2,3.9-6.3c-3.6,0-9.4-1.4-11.4,2.1c-1,1.7-1.4,3.7-3.7,3.7c-1.4,0-2.7-0.2-4-0.2
			c-1.8,0-2.8-0.1-3,1.8c-0.2,3.1-0.4,6.2-0.4,9.3s0.6,6.2,0.6,9.3c0,2.9-0.6,5.9-0.6,8.8c0,2-0.8,7.5,2,7.5L135.4,44.6L135.4,44.6z
			 M125,3.5h8.4l-3.9,5.4h-7.6L125,3.5z M139.6,50c0,1.2,0,2.4,0.1,3.7v-5.1C139.6,48.9,139.6,49.4,139.6,50z M114.2,58.8V49
			C113.9,51.3,114.2,56.8,114.2,58.8z M148.5,48.1c-2.5,0-4.7-0.3-7.2-0.3c-1,0-1.4,0.2-1.6,0.6h8.4v33.9h-8.5l-17-19.6v19.6h-8.4
			c0.4,0.5,1.2,0.8,2.4,0.6c1.5-0.2,3.3,0.2,4.8,0c2.5-0.3,2.3-1.6,2.3-4s0.2-4.6,0.3-7c0-2.4-0.3-4.3-0.1-6.7
			c1.7,1.8,2.8,3.4,4.5,5.1c1.7,1.8,3.5,3.5,5.1,5.3c1.6,1.9,2.9,3.8,4.5,5.7c1.4,1.7,3.9,1.4,5.9,1.2c4.1,0.3,5.8,0.3,5.4-4
			c0-2.6-0.2-5.2-0.2-7.7c0-2.6,0-5.2,0-7.8c0-2.6,0.4-5.2,0.4-7.8C149.5,53,148.5,48.1,148.5,48.1z M139.7,69.4v-9
			c-0.2,2-0.5,3.8-0.7,6c-1.5-1.7-3.1-2.3-4.7-4l-4.7-4.9c-1.4-1.5-2.7-3-4-4.5c-1-1.1-2.5-4.1-3.9-4.6c-2-0.7-5-0.8-7.1-0.3
			c-0.1,0-0.2,0.1-0.3,0.3h7.3L139.7,69.4z M27.7,43.6c0.3-0.2,0.5-0.4,0.6-0.6c1.7-1.9,2.5-4.6,3.8-6.8l4.8-8.5
			c0,0.9-0.5,5-0.6,8.6c-0.1,2.3,0.2,4.3,0.7,5.6v-16L27.7,43.6z M12.1,27.5v6.9c0.2-1.4,0.5-2.8,0.5-4.3c2.1,1.7,2.5,4.3,3.6,7.2
			c1.1,2.8,2.9,5.3,4.6,7.3C21.7,45.7,25,45,27,44h-6.5L12.1,27.5z M121.9,23h3.8c-0.7-0.1-1.3-0.3-1.8-0.6
			c-0.6-0.3-0.2-1.7-0.1-2.2c0-1.2,0-1.8,0.6-2h-2.5V23z M151.1,35.9h2.3c-0.3-0.1-0.5-0.1-0.5-0.3c0-2.4-0.3-4.1,1.6-4.6h-3.3v4.9
			H151.1z M157.2,31.1c2.2,0.3,4.4,0.6,6.6,0.6c3-0.1,3.2-1.6,3-4.4c0.2-2.7-0.4-3.7-1.7-4.1v8h-7.9V31.1z M139.7,48.4v0.2
			C139.7,48.5,139.7,48.5,139.7,48.4L139.7,48.4z M165.1,23h-0.4c0.2,0,0.3,0.1,0.4,0.1V23z M114.2,58.8v1.1c0-0.1,0-0.3,0-0.4
			C114.3,59.3,114.2,59.1,114.2,58.8z M85.6,33.3L85.6,33.3c0.2,0.1,0.4,0.2,0.6,0.3C86.1,33.5,85.8,33.4,85.6,33.3z M97.1,44
			L97.1,44C97.1,44,97,44,97.1,44C97,44,97,44,97.1,44z M95.3,36.1c0.5,0.1,0.9,0.1,1.3,0.1C96.2,36.1,95.8,36.1,95.3,36.1z
			 M114.2,82.4L114.2,82.4C114.3,82.4,114.3,82.3,114.2,82.4L114.2,82.4z"/>
		<path class="st0" d="M37.1,10.1h8.5V44h-8.5V25.9L32,35.5c1.3-2,3-3.1,4.2-5.2c0,2.8,0,5-0.3,7.7c-0.1,1.4-0.8,5.8,0.9,6.7
			c1.8,1,4.8-0.3,6.8-0.2c3.7,0.2,3.7-2.2,3.5-5.3l0,0c0-3.2-0.5-6.1-0.5-9.3s0.1-6.8,0.1-10s-0.4-6.1-0.4-9.3c0-2.3,0.1-2.8-1.8-3
			c-1,0-2.2,0-3.2,0c-4.2-0.1-5.2,1.3-6.9,5.1c-1.3,2.8-3.1,5.4-5.1,7.9s-3.9,5.7-5.7,8.1c-1.4-2-3-4.5-4.4-6.4
			c-1-1.4-2.1-2.7-3-4.1L24,33.8L37.1,10.1z M111,64.2c0-2.4,0.3-4.8,0.3-7.2c0-2.1,0.1-4.2,0.1-6.4c0-2.3,0.6-3.4-1.8-3.5
			c-2.4,0-5.2-0.2-7.6,0.3c-1.4,0-1,3.8-1,5c0,2.2-0.1,4.4-0.1,6.5c0,2.4,0,4.8,0,7.3v7.3c0,1.4-0.7,9,1,9.4
			c1.4,0.3,7.6,0.6,8.7-0.5c1.6-1.5,0.7-8.7,0.7-11C111.3,69,111,66.6,111,64.2z M110.4,82.4h-8.5v-34h8.5V82.4z M96.8,52.2
			c-1.4-1.8-3.8-2.2-5.9-2.9s-4.2-1.7-6.3-1.9c-2.2-0.3-4.6-0.6-6.9-0.6c-2.6,0-6-0.1-8.5,0.5c-1.1,0.3-1.1,3.4-1,6.7
			c0.1,2.9,0.1,5.9,0.1,6.9c0,3.2-0.2,6.4-0.2,9.6S68,76.9,68,80.1c0,0.2,0.4,2.8,0.5,2.8c1.5,0,3,0.5,4.5,0.5c3,0,5.9-0.3,8.9-0.3
			c3.9,0,7.9-1.4,11.4-3.5c2.2-1.3,3.9-2.6,4.8-4.8c0.9-2.2,2-4.5,2.3-6.9c0.4-2.3-0.5-5.3-1-8.1C98.9,57.1,98.3,54.1,96.8,52.2z
			 M82.1,82.4H69.2v-34h12.9c9.4,0,17.3,7,17.3,17C99.4,74.8,91.5,82.4,82.1,82.4z M4.8,45.7c1,0,7-0.3,7.5-1.3
			c0.6-1.4,0.6-4,0.6-5.4c0-2.5-0.3-4.7-0.3-7.2c1.3,1.2,1.5,4.2,2.9,7.2c1.5,3.2,3.8,5.9,5.7,6c2.3,0,4.1,0.1,5.5-1h-6.3l-8.3-16.5
			V44H3.7V10.1h8.5l2.3,4.6c-1-2.7-1.9-6-4.8-6.1C8.3,8.4,7,9,5.7,9.1C3.5,9.2,2,7.9,2,10.3s0.1,4.8,0.1,7.3c0,2.4-0.2,4.8-0.2,7.3
			c0,2.4,0,4.9,0,7.3s0.4,4.9,0.4,7.3C2.3,42.5,0.9,45.8,4.8,45.7z M84.2,72.7c-1,0.3-4.2,0.8-5.1,0c-1-1-0.2-5.4-0.2-6.8
			c0-3.1-0.8-6.1-0.8-9.1c0,0,3.7-0.2,4-0.2c2.1,0,4.3,0.7,6,2.1c1.2,1,2,2.4,2.5,3.9c-1-3.4-3.9-6-8.5-6h-4.4v17.8h4.4
			c5.1,0,8-3.1,8.7-6.8c-0.2,1-0.7,1.8-1.3,2.6C88.3,71.6,86.1,72.2,84.2,72.7z M12.8,56.5h-0.7v0.9C12.3,57,12.5,56.7,12.8,56.5z
			 M20.1,56.9c0.7,0.4,1.2,1,1.5,1.8c0.8,2.5-1.8,4.3-4,4.3c-2.7,0-4.9,1.4-5.4-1.7v3h5.5c3.3,0,4.7-2,4.7-4.1
			C22.3,59,21.7,57.6,20.1,56.9z M49.7,56c-4.9,0-8.2,3.4-8.2,9.4s3.3,9.4,8.2,9.4s8.2-3.4,8.2-9.4C57.9,59.5,54.6,56,49.7,56z
			 M55.9,69.2c-1,2.3-3.4,3.9-6.5,3.9s-5.2-1.7-6.3-4c-1-2.3-1-5.4,0-7.7c1.1-2.3,3.2-4.8,6.2-4.8c3.1,0,5.1,2.5,6.2,4.8
			C56.6,63.8,57,66.9,55.9,69.2z M63.5,51.2c-1.9-1.9-5.5-3-9.1-3.6c-3.1-0.5-6-0.4-9.2,0c-3.6,0.6-6.4,2.2-8.4,4.1
			c-2,2-3.6,4.8-4.2,8.3c0,0.2-0.1,0.4-0.1,0.6c-0.1-1.1-0.3-2.2-0.4-3.2c-0.2-2.5-0.9-4.6-2.1-6.3c-1.1-1.7-2.8-3.1-5.4-3.7
			c-2.6-0.6-5.3-1.4-7.9-1.3c-2.7,0.1-5.3,1-8,1c-1.6,0-3.2-0.3-4.8-0.1c-2.2,0.2-1.7,3.4-1.6,5c0.2,3.2,0.5,6.4,0.5,9.5
			c0,3.2,0.6,6.4,0.6,9.5c0,3.4-0.8,6.7-1.1,10.1c-0.2,2.7,3,2.2,4.8,2.3c1.4,0,5.9,0.8,6.3-1.3c0.4-2.3-0.7-5.1-0.9-7.5
			c3-0.1,4.4,1.2,5.3,3c1,1.9,1.7,3.7,3.7,4.8c3.1,1.9,5.8,1.2,9.2,1.2c0,0,0.9,0,1.1-0.4c0.5-1.1-2-4.7-3.3-6.9
			c-0.7-1.2-1.3-2.6-1.6-4c-0.3-1.4,1.4-1.4,2.2-2.2c1.1-1.1,2.1-2.4,2.7-3.8c0,1,0,2.1,0.1,3.1c0.6,3.6,2.1,6.6,3.7,8.7
			c1.3,1.7,3.3,3,5.8,3.6s5.1,0.6,7.1,0.7c2.2,0.1,4.8,0,7.3-0.6c2.5-0.5,4.8-1.5,6.6-2.8c1.8-1.3,3.3-3.4,4.1-6.2
			c0.6-2.3,1-4.9,1-7.5c0-2.5-0.3-5.3-0.8-7.6C66,55.2,65,52.7,63.5,51.2z M25.2,70.6l5.9,11.8h-9.5L16.9,72h-4.7v10.4H3.7v-34h16.1
			c7.6,0,11.4,5.4,11.4,11.6C31.1,65,28.6,68.7,25.2,70.6z M49.7,82.4c-9.4,0-17-6.7-17-17c0-10.4,7.6-17,17-17s17,6.7,17,17
			C66.7,75.8,59.1,82.4,49.7,82.4z M85.5,24.6c-0.5-1.1-0.8-2.5-0.8-4.1c0-7,5.8-10.5,12.7-10.5c4.5,0,8.7,1.3,11.9,3l-1.4,7.1
			c0.3,0.1,0.6,0.3,0.9,0.5c0.6-3,2.5-6.3,1.6-9.5c-0.7-2.3-5-1.7-6.9-1.9c-2.9-0.3-6.3-1-9.6-0.6c-3.3,0.4-5.9,1.9-7.8,4.6
			c-2.1,2.8-3.1,6.1-2,9.1C84.4,23.2,84.9,23.9,85.5,24.6z M119.3,44.6c3,0,5.9,0.3,8.9,0.3c3,0,5.9,0,8.8,0c2.8,0.2,3-1.3,2.8-4.1
			c0-1.5,1-4.6-0.1-5.8c-1-1.1-5.3-0.2-6.8-0.2c-2.3,0-4.7-0.3-7,0c-0.2-1-0.5-3.1,0.4-3.8h-4.5v4.9h16.9V44h-25.4V10.1h25.4v7.3
			c0.2-0.1,0.4-0.2,0.6-0.4c1.1-1.2,0.9-2.8,0.9-4.5c0.1-1.7,0.4-4.3-1.5-4.3c-2.4-0.3-4.7-0.1-7.1-0.4c1.3-2,5.8-6.2,3.9-6.1
			c0,0-9.5-1-11.4,2c-0.9,1.4-2,2.3-3.8,2.8c-2.4,0.6-7.8,0-7.7,1.7c0,0-0.4,4.2-0.4,6.8c0,2.5-0.3,5.1-0.3,7.7s-0.3,5.1-0.2,7.7
			c0,2.6,0,5.3,0,7.9c0,1.8,0.5,3.6,0.5,5.5C112.3,45.4,118.2,44.6,119.3,44.6z M125,3.5h8.4l-3.9,5.4h-7.6L125,3.5z M92.8,20.4
			c0,4.5,17.6,1.1,17.6,12.7c0,5.8-4.3,10.9-13.4,10.9c-3.3,0-7.6-1-11-2.3c0.2,0.1,0.4,0.2,0.6,0.3c2.7,1.1,5.8,3,9.2,3
			c3.4,0,6.6-1.6,9.3-2.7c2.3-1,4.2-2,5.3-3.9c1.1-1.8,1-4,0.9-6.5c-0.2-2.8-1.2-5.2-3.3-6.8c-2.1-1.6-4.8-2.8-7.2-3.4
			c-1.1-0.3-3.6,0.1-3.3-1.4c0.3-1.3,1.6-1.6,2.7-1.9c0.1,0,0.2,0,0.3,0C99.3,18.2,98,18,96.7,18C94.2,18,92.8,19.1,92.8,20.4z
			 M97.3,36.1c3.7,0,4.7-0.8,4.7-2.4c0-1.5-2.1-2.1-4.8-2.7c1.7,1.1,2.3,2.4-0.5,3.6c-3.6,1.5-8.4-1.9-11.6-3.4
			c-0.3,2.6-1.8,6.6-0.3,9.1l0.9-7.1C89.2,35,93,36.1,97.3,36.1z M151.1,23h14v8.1h-14V36h4.2c-0.8-0.4-0.5-1.4-0.5-2.7
			c0-2.1,1.6-1.4,3.2-1.4c2.2,0,5.4,0.8,7.4-0.5c1.7-1.1,0.6-5.6,0.6-7.4c0-3.3-7.3-1.1-9.4-1.3c-1.9-0.2-1.6-1.5-1.4-3.4
			c0.1-0.6,0.5-0.9,1.2-1.1h-5.2V23H151.1z M148.4,47.2c-2-0.3-9.6-0.7-9.5,2.1c0,2.6-0.2,5.1-0.3,7.7c0,2.5,0,4.6-0.4,7.2
			c-1.6-1.6-2.8-2.7-4.5-4.2c-1.6-1.6-3-3.4-4.6-5c-2.3-2.2-5.3-7.5-8.7-7.8c-1.6-0.2-3.4,0.3-5,0.6c-2,0.3-1.3,0-1.3,2.2
			c0,2.5-0.2,5.1-0.2,7.7c0,2.5-0.7,5.1-0.7,7.7c0,2.4-0.1,4.7-0.1,7.1c0,2.3,0.9,4.7,0.9,7c0,2-1.1,4,1.4,3.9
			c1.6-0.1,3.2-0.6,4.9-0.6c0.9,0,1.6-0.1,2-0.2h-8V48.4h7.5l18,21v-21h8.5v33.9h-8.5l-17-19.6v19.5c0.7-0.4,0.5-1.2,0.5-3.2
			c0-1.1,0-12.5,1.2-12.5c2.5,2.3,4.4,5.3,6.7,7.7c2.3,2.4,4.6,4.8,6.8,7.3c1.6,1.8,4.5,1,6.7,1c3.9,0.2,4.5,0.4,4.1-3.5
			c0-0.9,0.5-4,0.5-7.8v-7.9c0-2.8,0.1-5.5,0.1-7.9C149.2,51,148.7,47.2,148.4,47.2z M49.2,30.2c0.1,2.7,0,5.1,0.8,7.1
			c1,2.3,2.5,4.2,4.7,5.5c1.8,1.1,4.2,0.9,7,1.2c3.1,0.3,7,1.4,10.5,0.6c3.6-1,5.9-3.6,7.4-6.8c1.1-2.4,2.3-4.9,2.6-7.7
			c0.3-2.7,0-5.5,0-8.2c-0.1-2.9,0.3-5.7,0.3-8.3c0-4,0-4.4-3.9-4.7c-1.2-0.1-5.7,0.1-5.7,2c0,1.1,0.2,2.5,0.3,4.1v-4.7h8.5v17
			c0,9.4-6.7,17-16.1,17s-16.1-5.6-16.1-17v-17H58v17c0,6.1,2.7,9,7.6,9s7.6-4.1,7.6-9v-6.2c-0.3,1.7-0.8,3.3-1.3,4.7
			c-0.8,2.5-2.1,4.5-5,5c-4.7,0.7-6.7-1.7-7.7-4.8c-0.9-2.9-1-6.6-0.9-10c0-2.1,1.5-6.5-2.6-6.8c-2.4-0.2-3.2,0.3-5.6,0.5
			c-2.7,0.2-0.8,6.4-0.8,8.4C49.3,21.9,48.7,26,49.2,30.2z M121.9,23h14v8c0.9,0,1.1-0.3,1.7-1.5c0.5-1,1-7-0.3-7.5
			c-1.4-0.6-11.5,0.7-11.6-0.5c-0.2-1-0.4-2.7,0.3-3.4h-4.1C121.9,18.1,121.9,23,121.9,23z M169.5,35.7c-0.8-1.4-8.8-0.2-12,0.3H168
			v8h-25.4V10.1H168v8.1h-6.5c2.5,0.4,6.3,1,7.1-0.2c1.4-2.2,0.3-6,0.2-8.4c-0.1-1.7-9.7-0.3-11.6-0.3c-2.8,0-5.5,0-8.2,0
			c-2,0-4.4-1.7-6.4-1.1c-1.6,0-1.7,2.6-1.7,4.1c-0.1,1.8,0.2,3.6,0.3,5.4c0.1,2.2,0.6,4.4,0.6,6.6s0.5,4.4,0.5,6.6
			c0,2.6-0.2,5.3-0.2,7.9c0,1.6-1.6,4.6-0.8,6.1c0.4,0.8,3.9,0.5,7,0.4c2.9-0.1,5.9-0.8,6.8-0.8c2.8,0,5.5,1.1,8.2,1.1
			c1.1,0,3.7-0.2,4.8-0.9C169.6,43.6,170.2,37,169.5,35.7z M91,65.4c0,0.7-0.1,1.4-0.2,2.1c0.4-1.4,0.3-3-0.1-4.5
			C90.9,63.8,91,64.6,91,65.4z"/>
		<path class="st0" d="M49.7,56c-4.9,0-8.2,3.4-8.2,9.4s3.3,9.4,8.2,9.4s8.2-3.4,8.2-9.4C57.9,59.5,54.6,56,49.7,56z M50.5,72.1
			c-3.7,0-6-2.9-6-6.1c0-3.2,2.3-6.2,6-6.2s5.1,3,5.1,6.2C55.6,69.2,54.2,72.1,50.5,72.1z M138.1,35.9c-1-0.1-2,0-2.8,0H138.1z
			 M48.9,23.1c0,2.4,0.3,4.9,0.4,7.3c0.1,2.5-0.6,5-0.2,7.4c0.4,2.2,1.6,4.9,4,5.8c2.1,0.8,3.9,2.2,6.2,2.5c2.2,0.3,4.5-0.3,6.6-0.3
			c3.5,0,7.3-0.9,10.7-1.7c3.7-0.8,4.7-2.7,5.3-6.3c0.6-2.8,1.2-5.5,1.4-8.3c0.3-2.8,0-5.6,0-8.4s0.3-5.6,0.2-8.4
			c0.1-1.1,0.4-3.3-0.9-3.3c-1.7-0.3-3.7,0.3-5.4,0.3c-3.6,0-5.2-0.7-5,3.4c0.1,3.4,1.5,8.3-1.8,10.5c-2.8,1.9-6.1,1.9-8.9,0
			c-2.9-2.1-1.6-5.9-1.6-9.1c0-3.9,0-5.5-4.3-5.2c-2,0.1-4,0.3-6,0.6c-2,0.2-0.6,4.5-0.6,5.9C49,18.2,48.9,20.6,48.9,23.1z
			 M49.4,10.1h8.5v17c0,6.1,2.7,9,7.6,9s7.6-4.1,7.6-9v-17h8.5v17c0,9.4-6.7,17-16.1,17s-16.1-5.6-16.1-17V10.1z M3.2,46.6
			c1.7,0.2,3.3,0.3,5,0.1c1.5-0.1,3.1-0.7,4.6-0.9c0.8-0.1,0.2-6.7,0.2-7.8c1.8,1.8,3.8,3,5.3,5c1.4,2.7,1.1,4,4.5,3.7
			c2,0.2,5.6,0.5,6.7-1.5c1.9-3.2,4.6-5.3,6.8-8.4c0,3.1-1.4,7-0.3,10c0.2,0.6,7.1-0.1,7.9-0.1c2.1,0,4.2,0.4,4.2-2.1
			c0-3.2-0.7-6.4-0.7-9.5c0-3.2,0.5-6.4,0.5-9.6s-0.2-6.4-0.2-9.5c0-1.6-0.3-3.1-0.3-4.7c0-2.4-0.7-2.1-2.8-2.1h-0.1
			c-2-0.3-4.2,0.8-6.5,0.8c-0.1,0-0.3,0-0.4,0h8v34h-8.5V25.9L27.5,44h-7l-8.3-16.5V44H3.7V10.1h8.5l12,23.9l9.7-18
			c-1,1.2-2.4,2.3-3.6,3.4c-1.6,1.5-3.1,3.1-4.6,4.5c-1.7,1.6-2.5-1.7-3.9-3.2c-2.3-2.2-5.2-3.7-6.7-6.6c-1.4-2.8-1.1-3.1-4.2-4.9
			C8.7,7.9,5.7,8.4,3.6,8.4c0,0-0.7,0.8-0.7,2C3,14,2.2,17.5,2.2,21c0,2.4,0,4.8,0,7.3c0,2.4,0,4.9,0,7.3c0,2.4,0.2,4.8,0.2,7.3
			C2.3,44.3,1.3,46.4,3.2,46.6z M82.1,56.5h-4.4v17.8h4.4c6.1,0,9-4.4,9-8.9C91,60.7,87.9,56.5,82.1,56.5z M87.3,71
			c-1.2,0.8-6.2,2.5-6.2,0c0-3.7-0.7-7.3-0.7-10.9c2.8,0,6.7-0.1,8.4,2.7C90.4,65.4,89.9,69.3,87.3,71z M35.4,13.1l1.5-2.7
			C36.2,10.9,35.8,12.1,35.4,13.1z M143.9,47.3c-0.8,0-4.2-0.5-4.9,0.4c-0.8,1,0.3,3.7,0.7,5.3v-4.6h8.5v33.9h-8.5l-17-19.6v19.6
			h-8.5V48.4h7.5l18,21V55c-0.3,2.1-1.3,3.8-2.1,5.9c-1.7-1.2-3.7-2.4-5.5-3.7s-3-3.2-4.3-4.8c-2.3-2.7-3.9-5.1-7.8-4.8
			c-1.4,0.1-2.8,0.6-4.2,0.4c-2.7-0.2-2.5,1-2.5,3.2c0,2.4,0.6,4.8,0.6,7.2s-0.5,4.8-0.5,7.2s-0.3,4.8-0.3,7.2
			c0,2.4,0.6,4.8,0.6,7.2c0,0.6-0.3,4.5,0.1,4.5c1.6,0,3.1,0.1,4.7,0.3c2.3,0.2,5.9,0.6,5.8-2.6c-0.2-3.5,0.1-6.8,1.4-10
			c2.4,1.7,4.8,3.5,7,5.2s4.4,3.4,6.4,5.6s7.6,1.3,10.2,1.3c0.7,0,0.3-4.1,0.3-8.2c0-3.7,0-7.5,0-8.4c0-3.1,0.7-6.2,0.8-9.4
			c0.1-3.1,0-6.3-0.4-9.3C150.1,46.8,145.8,47.3,143.9,47.3z M22.3,60.2c0-1.8-1.4-3.7-4.7-3.7h-5.5v7.8h5.5
			C21,64.3,22.3,62.4,22.3,60.2z M14.7,61.4C14.4,60,14.2,58,16,57.8c1.5-0.1,3.5,0.5,4.4,1.9c1.2,1.7-0.7,3.4-2.4,3.4
			C15.9,63.1,15,63.8,14.7,61.4z M170,40.4c0-2.1,0.7-3.7-1.4-4.4c-3-0.9-5.7-1.1-8.7-0.9c0.1-3.5,2.6-1.8,5.4-2c0.9,0,2,0,2-1
			c0-1.2,0.2-1,0.4-2.1c0.6-3.3-0.4-4.6-0.6-6.5c-0.3-3.4-8.2,1.6-8.2-3.5c0-0.6,9.6,0,10.8,0c0.6,0,0.2-5.1,0.2-5.6
			c0-1.8,0-3.4,0-5.2c-2.4,0-4.6-0.1-7-0.1s-4.8,0.6-7.2,0.6c-2.2,0-4.3-0.4-6.4-0.4c-2.2,0-4.3-1.1-6.4-1.1c-2.5,0-0.6,7.9-0.6,9.5
			c0,2.8-0.1,5.6-0.1,8.3c0,2.8-0.3,5.5-0.3,8.3c0,2.1-0.2,4.2-0.3,6.4c0-1-0.2-2-0.3-3.4c0-0.8-1.2-1.2-2.5-1.3v8h-25.4V10.1h25.4
			v8.1h-16.9V23h14v8.1h-14V36h7.3c-0.7-2.8,1.2-2.8,3.9-2.8c0.9,0,4.3-0.1,5.2-0.9c0.8-0.6,1.1-2.1,1.1-3.1c0-1.2,0.2-2.6,0-3.7
			c-0.1-0.6-0.8-2.2-1.7-2.5c-3-0.9-9.9,1-8.5-3.4c0.3-1.1,10.6,0.6,11.2-0.7c1.1-2.3,1.1-6.8,0.5-9.2c0-1.8-3.6-1.5-5-1.9
			c0.8-1.5,7.1-6.4,1.3-6.1c0,0-8.2-0.4-11.9,0.6c-1.7,0.4-1,3.3-2.6,3.6c-2.3,0.5-5.3-0.1-7.8,0.2c-3,0.3-2.9,3.1-3,4.3
			c0,0.1,0,0.3,0,0.4c-0.9-0.6-4.1-0.5-4.6-0.6c-2.1-0.3-4.2-0.6-6.3-0.7c-2.1-0.1-4.3-1-6.4-0.7c-3,0.4-8.2,2-9.5,5.1
			c-1.2,3-1.8,7-0.8,10.1c1,3.3,3.8,6.1,7.1,7.1c1.4,0.4,5.9,1.2,2,2.8c-2.5,1.1-5.2-0.2-7.3-1.3c0,0.2-0.1,0.4-0.1,0.6
			c3.5,1.7,7.3,2.8,11.6,2.8c3.7,0,4.7-0.8,4.7-2.4c0-4.3-17.4-1.1-17.4-13.2c0-7,5.8-10.5,12.7-10.5c4.5,0,8.7,1.3,11.9,3l-1.5,7.7
			c-2.8-1.4-7-2.8-11-2.8c-2.6,0-4,1.1-4,2.3c0,4.5,17.6,1.1,17.6,12.7c0,5.8-4.3,10.9-13.4,10.9c-3.9,0-8.9-1.3-12.4-2.9l0.9-6.7
			c-0.7,3.1-2,6.5-0.6,9.3c0.9,1.9,3.9,2.5,7.3,2.7c3.3,0.1,6.8,0.3,8.4,0.2c3.1-0.4,5.9-1.9,8.7-3.4c1.4-0.8,2.2-1.7,2.6-2.7
			c0,0.1,0,0.3,0,0.4c0,1.1-0.3,4.5,0.5,5.4c0.9,1,5.2,0.3,6.5,0.3c3,0,5.7-0.4,8.7-0.4c1.6,0,13.2,0.5,13.6-2.1
			c0.2-0.9,0.2-1.5,0.3-2.2c0,0.3,0,0.7,0,1c0,2-0.7,3.4,1.6,3.4c4.1,0.9,8.4,0.6,12.6,0.6c4.2,0,8.3,0.3,12.5,0.3
			c1.7,0,1.7-0.5,1.8-2.1C170.3,43.5,170.3,41.9,170,40.4z M125,3.5h8.4l-3.9,5.4h-7.6L125,3.5z M109.8,28.2
			c-1.7-2.1-3.7-3.9-6.8-4.8c-1.7-0.4-1.1-2.1,1-2.1c1.7,0,5.1,1.4,6.4,2.1c0.6-2.9,0.8-6.1,1.1-9.1c0,0.8,0,1.6,0,2.4
			c0,2.8,0,5.6,0,8.4c0,2,0.1,4.1,0.1,6.1C111.3,30.2,110.6,29.2,109.8,28.2z M168,44h-25.4V10.1H168v8.1h-16.9V23h14v8.1h-14V36
			H168V44z M112.1,72.1c0-3.3-0.2-6.6-0.2-9.9c0-3.3,0.1-6.6,0.1-9.8c0-1.1,0.4-2.1,0.4-3.2c0-2.4-0.9-1.7-2.9-1.7
			c-1.6,0-3.1,0.3-4.6,0.2c-0.8,0-2.9-0.6-3.5,0.1c-0.9,1.1,0,6.5,0,8c0,2.4-0.3,4.7-0.4,7c-0.1-0.8-0.1-1.6-0.2-2.4
			c-0.4-3.5-0.9-6.8-2.5-8.8c-2.5-3.1-7.7-3.6-11.4-3.7c-2.9-0.1-5.8-0.1-8.7-0.2c-2.9,0-5.8-0.2-8.6-0.2c-1.1,0-1.1,3.4-1,6.7
			c0,2.9,0.5,6,0.5,6.9c0,2.1-0.4,4.1-0.5,6.2c-0.1-0.4-0.2-0.8-0.2-1.2c0-0.7,0.3-1.3,0.2-2c0-2,0.2-4.7-0.1-7
			c-0.4-2.6-1.6-4.9-2.9-6.2s-3.8-1.4-6.3-1.8c-2.3-0.3-4.7-1.5-6.7-1.6c-0.7-0.1-1.5,0.2-2.2,0.2s-1.4-0.3-2.2-0.2
			c-2,0-4.5,0.2-6.8,0.5c-2.4,0.3-5.1,1-6.4,2.3c-0.8,0.8-1.3,2.1-1.6,3.6c-0.8-3.2-2.8-5.2-6.4-5.7c-3-0.4-6.1-0.4-9.2-0.5
			c-3.1,0-6.1-0.6-9.2-0.6c-1.1,0-3.1,0.3-4.5,1.4h15.6c7.6,0,11.4,5.4,11.4,11.6c0,5-2.5,8.7-5.9,10.6l5.9,11.8h-9.5L16.9,72h-4.7
			v10.4H3.7V48.9c-0.8,0.9-1.3,2.1-1.1,4c0.5,3.1-0.8,5.9-0.8,9S3,68.1,3,71.2s-1,6.2-1,9.4c0,1.8-0.2,4.4,2.2,4.5
			c1.4,0.1,2.8-0.3,4.2-0.2c1.4,0.1,3.2,0.2,4.4-0.7c1.5-1.1,0.9-4,0.7-5.5c4.3,0,4,5.6,8.1,5.6c3.9,1.1,12.9,1.1,11.4-0.9
			c0,0-1.6-4.1-2.5-6.9c-0.8-2.4-0.3-3.7,0.7-5.9c0.2-0.4,0.4-0.8,0.5-1.1c0.3,1.8,1,3.7,1.2,5.6c0.4,2.6,0.7,5.3,2,6.6
			c1.3,1.3,3.9,2.1,6.4,2.5c2.3,0.3,4.8,0.2,6.8,0.3c0.7,0,3.6,0.1,4.4,0c2,0,4.4-0.9,6.7-1.3c2.6-0.4,5.3-0.4,6.6-1.7
			c1.3-1.3,1.9-3.9,2.2-6.4c0.2-1.7,0.4-3.4,0.4-5c0,1.7,0.1,3.5,0.1,5.2c0,2.4,0,4.7,0,7.1c0,3,2.2,2.2,4.5,2.2
			c3,0.1,6-0.4,9.1-0.6c2.3-0.1,5.1,0.2,7.9-0.2c2.7-0.4,5.2-1.2,7.3-2.5c1.5-1,2.9-2.9,3.3-5.3c0.4-2.3-0.3-4.9-0.1-6.4
			c0.2-0.8,0.3-1.8,0.3-2.9c0.1,1.7,0.2,3.4,0.2,5.1c0,2.4,0.1,4.8,0.1,7.3c0,0.8-0.6,4,0.1,4.8c0.9,1,4.9,1,6.1,1
			c2.7,0,5.1,0.3,4.9-2.8C112.6,78.6,112.1,75.3,112.1,72.1z M49.7,82.4c-9.4,0-17-6.7-17-17c0-10.4,7.6-17,17-17s17,6.7,17,17
			C66.7,75.8,59.1,82.4,49.7,82.4z M82.1,82.4H69.2v-34h12.9c9.4,0,17.3,7,17.3,17C99.4,74.8,91.5,82.4,82.1,82.4z M110.4,82.4h-8.5
			v-34h8.5V82.4z"/>
		<path class="st0" d="M170.8,42.9c0-1.4,0.7-7.6-0.6-8.4c-1.3-0.9-5.8,0.3-7.3,0.3c0-3.1,4.2,0.3,4.8-2c0.3-1.1,0.3-1.7,0.3-2.8
			c0-1.1,0-1.3,0-2.2c0-2.4-0.1-3.7-0.8-5.6c-0.6-1.9-3.3,0.6-4.1-1.8c2.3,0,6.8,1.4,6.8-1.7c0-1.7,0.6-3.5,0.6-5.2
			c0-1.2,0-2.4-0.2-3.5c-0.2-1.8-3.9-1.4-5-1.4c-3.5,0-7-0.3-10.6-0.3c-3.5,0-7,0-10.6,0c-2,0-3.1-0.4-3.5,0.8
			c-0.2-0.3-0.6-0.5-1-0.6c-5.4-2.2-0.2-5.8-2-5.8c0.2,0-3.5-0.5-5.7-0.6c-2.2-0.1-4.5-1-6.6-0.8c-1,0-1.5,1.1-2.2,2
			c-1.1,1.4-1.6,1.3-3.4,1.5c-2.8,0.4-7.1,0-7.7,0.8c-0.6,0.7-0.6,2.7-0.6,5c-0.2-0.2-0.5-0.4-0.8-0.5c-3.2-1.2-7.4-0.8-10.8-0.8
			c-4.1,0-8.1-0.5-12.1,0.4c-1.5,0.4-4.2,0.9-4.2,3.1c0,1.7,0.2,3.4-0.3,5.1c-0.1,0.6-0.3,1.2-0.4,1.8c0-0.6,0-1.2,0.1-1.8
			c0.4-3,1.1-7.9-1.4-8.4c-3.6,0-5.6-0.6-9.2-0.3c-2.3,0.2-0.9,4.8-0.9,6.6c0,4.2-6.2,5-9.3,3.9c-3.9-1.4-2.7-5.7-2.8-9.1
			c0-2.4-5-1.8-6.5-1.8c-1.4,0-2.8-0.1-4.2,0.2c-0.4,0.1-0.6,0.3-0.7,0.7c-0.3-0.9-1.1-0.6-3.4-0.6c-2.9,0-8.1-1.8-9.8,1.2
			S31,14,28.2,15.9c-1.7,1.2-3.1,2.8-5.3,1.4c-2.6-1.6-5.7-2.7-8.4-4.4c-0.6-1.1-0.8-3.9-2.2-4.3C10.1,8.1,7.4,7.8,5.2,8
			c-3.4,0-3.6-0.3-3.6,3.5c0,2.8-0.5,5.6-0.5,8.4s0.5,5.6,0.5,8.4s-0.4,5.6-0.4,8.4c0,1.2-0.5,9.9,0.3,10.1c1.7,0.4,3.6-0.6,5.3-0.6
			c1.6,0,3.2,1,4.7,1.3c-0.2,0-0.4,0.1-0.6,0.1c-2.1,0.1-7.3-0.9-9.1,0.3c-1.5,1.1-0.1,7.2-0.1,8.8c0,3.6-0.6,7.2-0.6,10.8
			c0,2.2-0.4,4.3-0.4,6.4S2,78,2,80.1c0,1-1,3.9,0.3,4.4c2.3,1,6,1.2,8.5,1.2c2.9,0,2.9-1.1,2.9-3.8c3.1,1.2,6.1,3.2,9.5,3.3
			c3.6,0.2,11,0.6,10.6-1.5c0,0-0.1-0.4-0.3-1c1.6,1.3,5.2,1.7,7,1.9c2,0.2,3.9,0,5.9,0c1.7,0.3,3.6,0.3,5.4,0.1c0.4,0,0.8,0,1.2,0
			c1.6-0.1,3.1-0.3,4.7-0.4c2-0.2,7.3,0.5,8.9-1.1c0.2-0.2,0.3-0.4,0.4-0.6c0,1,0,1.9,0.4,2.3c0.9,1.1,7.5,0.2,8.9,0.2
			c3.1,0.1,6-0.7,9-0.8c3.9-0.1,7.9,0.3,11.6-1.2c1.7-0.7,2.9-2,3.6-3.7c-0.3,1.8-1,4.7-0.2,5.5c0.9,1,6.9-0.3,8.3-0.2
			c0.5,0,3.5,0.6,3.8,0c0.2-0.3,0.4-0.7,0.5-1.1c0.3,0.7,0.9,1.1,2.4,1c2.4,0.2,7,1,9.1-0.2c0.6-0.4-0.1-1.6-0.1-2.2
			c0-2.3,0.7-2.7,2.3-4.3c1.6-1.6,7.9,2,9.6,2.8c0.9,0.4,1.7,2.3,2.5,3.1c1.2,1,2.5,1.6,4,1.6c2,0,8,0.8,8-2c0-2.5-0.5-4.9-0.5-7.4
			s-0.3-4.9-0.3-7.4s0.7-4.9,0.7-7.4s-0.2-4.9-0.2-7.4c0-2.2,0.4-4.7,0.4-6.8c-2.5,0-5.5,0.2-8,0.2c-0.8,0-1.5,0-2.1,0h0.1
			c0.2-0.1,0.3-0.2,0.4-0.4c0,0,0.1,0,0.1,0.1c1.5,0.2,3.1,0.1,4.6,0.1c3.4,0,6.8,0.3,10.3,0.3c3.6,0,7.3,0.3,10.9,0.3
			C169.9,47.4,171.6,46.2,170.8,42.9z M140,20.6c0,0.3,0,0.6,0,0.9c0,1.8,0.1,3.6,0.1,5.4c-0.6-2.4-2.4-3.7-2.7-3.9
			c-1.2-1.5-3.8,0.7-3.9-2.4C135.5,20.7,138.1,20.9,140,20.6z M125,3.5h8.4l-3.9,5.4h-7.6L125,3.5z M111.6,16.3
			c0,3.2,0.3,6.4,0.3,9.6c0,1,0,2-0.1,3c-0.1-0.2-0.2-0.4-0.3-0.5c-1.1-2-2.8-3.2-4.8-4.2c-0.6-0.3-0.9-0.8-0.5-1.5
			c0.8-1.3,2.7,0.8,3.8,1.4C110.3,23.1,110.9,19.3,111.6,16.3z M97.4,10.1c4.5,0,8.7,1.3,11.9,3l-1.5,7.7c-2.8-1.4-7-2.8-11-2.8
			c-2.6,0-4,1.1-4,2.3c0,4.5,17.6,1.1,17.6,12.7c0,5.8-4.3,10.9-13.4,10.9c-3.9,0-8.9-1.3-12.4-2.9l1-7.8c3.5,1.7,7.4,2.9,11.7,2.9
			c3.7,0,4.7-0.8,4.7-2.4c0-4.3-17.4-1.1-17.4-13.2C84.6,13.5,90.4,10.1,97.4,10.1z M49.4,10.1h8.5v17c0,6.1,2.7,9,7.6,9
			s7.6-4.1,7.6-9v-17h8.5v17c0,9.4-6.7,17-16.1,17s-16.1-5.6-16.1-17V10.1z M48.9,36.5c0.1,1-0.2,2.7-0.2,4.4v-5.2c0-0.7,0-1.3,0-2
			C48.7,34.6,48.8,35.5,48.9,36.5z M48.1,15c0.1,1.2,0.1,2.5,0.1,3.7c0,0.7-0.1,1.3-0.1,2c0-0.8-0.1-1.6-0.1-2.4
			C48,17.2,48.1,16.1,48.1,15z M3.7,44V10.1h8.5l12,23.9l12.9-23.9h8.5V44h-8.5V25.9L27.5,44h-7l-8.3-16.5V44H3.7z M13.5,40.1
			c1.7,1,3.4,3.1,4.2,4.8c0.3,0.7,0.8,1.2,1.3,1.6c-1.3-0.1-2.7-0.2-4-0.1c-0.5,0-1.1,0.2-1.7,0.4C14.3,45.2,13.5,41.1,13.5,40.1z
			 M31.1,82.4h-9.5L16.9,72h-4.7v10.4H3.7v-34h16.1c7.6,0,11.4,5.4,11.4,11.6c0,5-2.5,8.7-5.9,10.6L31.1,82.4z M49.7,82.4
			c-9.4,0-17-6.7-17-17c0-10.4,7.6-17,17-17s17,6.7,17,17C66.7,75.8,59.1,82.4,49.7,82.4z M67.6,77.8c0-1,0-1.9,0.1-2.5
			c0-0.4,0.1-0.8,0.1-1.2c0,0.6,0,1.2,0,1.8C67.9,76.3,67.8,77,67.6,77.8z M82.1,82.4H69.2v-34h12.9c9.4,0,17.3,7,17.3,17
			C99.4,74.8,91.5,82.4,82.1,82.4z M110.4,82.4h-8.5v-34h8.5V82.4z M112.8,79.9c-0.1-0.6-0.1-1.1-0.2-1.5c0-0.6,0-1.2-0.1-1.8
			c0.1,1,0.2,2,0.2,3C112.8,79.7,112.8,79.8,112.8,79.9z M112.3,71.3c0-0.3,0-0.7,0-1c0-2.7,0.4-5.3,0.4-8.1c0-0.1,0-0.2,0-0.2
			c0.3,1.2,0.6,2.5,0.6,3.7C113.3,67.5,112.6,69.4,112.3,71.3z M112.9,52.1c0,1.6-0.4,3.2-0.6,4.8c-0.1-0.9-0.1-1.8-0.1-2.7
			c0.2-2,0.6-4.4,0-6.4c0-1.3-4.3-0.5-5.6-0.5c-0.8,0-6.1-0.7-6.2,0.1c-0.5,2.5,0.3,5.5,0.4,8.1c0,0.5,0,0.9,0,1.4
			c-0.3-0.8-0.6-1.6-0.7-2.4c-0.4-2.9-0.6-5-2.2-5.9c-1.6-0.8-4-0.6-6.6-0.8c-2.4-0.2-4.8-0.5-7.2-0.6c-2.4-0.1-4.8-0.4-7.2-0.4
			c-2.4,0-4.8,0.6-7.2,0.6c-2,0-1.7-0.5-1.7,1.6c0,1.6,0.3,3.2,0.3,4.8c0,1.1,0,2.1-0.1,3.2c-0.3-2.2-1-5.6-2.4-6.9
			c-1.4-1.4-5.3-2-7.2-2.1c-1.9-0.2-3.9,0.1-5.8,0c-1.1-0.2-2.2-0.1-3.3-0.1s-2.2,0.3-3.3,0.5c-1.6,0.1-3.3-1-4.9-0.8
			c-2,0.2-7.2,0.1-8.9,1.7c-0.1,0.1-0.1,0.1-0.2,0.2c-0.7-1.1-1.9-1.5-4.5-1.7c0.8-0.1,1.5-0.4,2-0.9c2-2.1,3.7-4.5,5.8-6.7
			c0,2-0.5,4.1-0.4,6.1c0.1,1.4,2.5,0.8,3.6,0.8c2.4,0.1,4.8,0.6,7.2,0.6c2.1,0,2.7-1.4,2.7-3.1v-1.8c0.1,1.6,0.4,3,1.6,3.5
			c2.1,0.8,4.7,0.9,7.1,1.1c2.3,0.2,4.8-0.2,7.1-0.3c2.5-0.1,4.9,0.3,7.1,0.1c2.4-0.1,8.4-0.5,9.8-2.9c1.3-2.3,1.6-6.3,1.7-8.9
			c0.2-2.8,0.1-5.7,0.3-8.6c0-0.7,0-1.4,0-2.1c0.9,2.8,3.1,4.9,5.7,6.3c1.1,0.6,1,2.1-0.4,2.2c-1.3,0.1-2.5-0.9-3.7-1.4
			c-0.5,3.8-2.4,7.2-2.2,11c0.1,2.7,2.3,3.3,4.9,3.6c2.3,0.3,5,0.5,6.8,0.6c2.6,0.2,5.3-0.6,8.1-0.9c2.7-0.4,3.4,0,5.7-1.4
			c0.7-0.4,2.1-2.3,3.2-4.5c-0.1,2.7-0.2,6.5,0.8,7.2c0.3,0.2,0.8,0.4,1.3,0.5C112,47.9,112.9,50.1,112.9,52.1z M113.4,10.1h25.4
			v8.1h-16.9V23h14v8.1h-14V36h16.9v8h-25.4L113.4,10.1L113.4,10.1z M138.5,47.4c-0.5,0.4-0.7,1.3-0.7,2.9c0,3.6-0.7,5.2-4.5,3.7
			c-1.4-0.6-3.4,0-4.7-0.8c-2-1.1-2.5-3.3-4.2-4.9c-0.6-0.5-1.2-0.9-2-1.2c3.3,0,6.6,0.1,9.9,0.1C133.9,47.3,136.5,47.6,138.5,47.4z
			 M148.2,48.4v33.9h-8.5l-17-19.6v19.6h-8.5V48.4h7.5l18,21v-21H148.2z M133.9,35.6c0.5-2.7,2.7-1.2,4.3-2.2c0.5-0.3,1.6-1.5,2-3.3
			c0,0.3,0,0.6,0,0.8c0,2.1,0.3,4.1,0.4,6.2C139.5,34.7,133.9,35.6,133.9,35.6z M168,44h-25.4V10.1H168v8.1h-16.9V23h14v8.1h-14V36
			H168V44z M17.7,56.5h-5.5v7.8h5.5c3.3,0,4.7-2,4.7-4.1C22.3,58.4,21,56.5,17.7,56.5z M18,62.6c-0.8,0-2,0.1-2.2-1.1
			c-0.1-1-0.5-3.3,1-3.3C19,58.2,21.3,62.6,18,62.6z M82.1,56.5h-4.4v17.8h4.4c6.1,0,9-4.4,9-8.9C91,60.7,87.9,56.5,82.1,56.5z
			 M85.8,70.2c-3.2,1.9-4.2,0-4.5-2.3c-0.3-2.1,0.3-4.8,0.3-6.4c2.3,0,4.8-0.2,5.9,2.2C88.7,65.8,88,68.9,85.8,70.2z M49.7,56
			c-4.9,0-8.2,3.4-8.2,9.4s3.3,9.4,8.2,9.4s8.2-3.4,8.2-9.4C57.9,59.5,54.6,56,49.7,56z M49.5,70.5c-2.8,0-4.1-1.9-4.1-4.3
			s1.3-4.8,4.1-4.8s4.2,2.3,4.2,4.8C53.7,68.5,52.2,70.5,49.5,70.5z"/>
		<path class="st0" d="M82.1,56.5h-4.4v17.8h4.4c6.1,0,9-4.4,9-8.9C91,60.7,87.9,56.5,82.1,56.5z M83.7,68.8
			c-1.2-0.3-0.5-3.9-0.5-5.3C86.8,63,87.4,68.8,83.7,68.8z M49.7,56c-4.9,0-8.2,3.4-8.2,9.4s3.3,9.4,8.2,9.4s8.2-3.4,8.2-9.4
			C57.9,59.5,54.6,56,49.7,56z M49.8,67.7c-2.8,0-2.8-3.7,0-3.7C52.6,64,52.6,67.7,49.8,67.7z M170.1,33.4c0.3-1.4,0.8-2.2,1.2-3.5
			c0.8-2.9-0.9-6.2-1.7-9c0.7,0.1,1.4,0.2,1.7-0.1c0.3-0.3,0.5-2,0.5-2.5c0-3.7,0.2-7.7,0.2-11.3c-3.1,0-6.7-0.3-9.8-0.3
			s-6.3,1.2-9.4,1.2c-3.1,0-6.3-0.2-9.4-0.2c-0.3,0-0.6,0-0.9,0c-0.4-3.1-0.9-6-0.9-6c-0.5-1.5-4.5-1.1-6.8-1.2
			c-2.1,0-4.3-0.5-6.4-0.5c-2.7,0-5.3,1.1-8,1.3c-2.6,0.2-5,0.2-7.7,0.2c-1.5-0.5-1.9,1.6-1.9,1.6c0,1.5,0.1,2.5-0.1,4
			c0,0.1,0,0.2,0,0.3c-3.4-0.9-7.1-0.4-10.4-0.7c-3.8-0.3-7.7,0.7-11.5,0.8c-1.3,0-3.1-0.2-4.4,0.3c-3.1,0-6.5,0-9.6,0
			c-1.5,0-3.3-0.7-3.4,1.1c-0.1,2.1-2.3,1.4-4.2,1.5c-1.4,0.1-2.8-0.3-4.2-0.5c-2.3-0.3-1.7,0.2-2.2-1.3C60,7.1,55,7.4,53.9,7.4
			c-0.9,0-2.8-0.2-4.3,0c-0.3-1-1.2-1.1-2.7-1.1c-2,0-4,0-6.1,0c-1.1,0-2.2,0.5-3.3,0.5c-1.7,0-1.6,1.4-3.4,1.6
			c-3.4,0.5-6.9,0.4-10.4,0.3c-3.3-0.1-7.4,0.5-10.1-1.3c-2-1.4-6.8,0-9.3-0.1C3.4,7.2,1,6.3,0.7,7.8c-0.3,1.8,0,3.7,0.1,5.5
			c0.2,3.1-0.6,6.2-0.6,9.2c0,3.1,1.2,6.2,1.2,9.2c0,1.1-1,4.7-1,8.1c0,2.6,0.2,5.4,0.8,6.9c-0.2,0.4-0.3,1-0.3,1.9
			C1,51.3,0,53.9,0,56.5s0.2,5.2,0.1,7.8c0,2.6,0,5.2,0,7.8c0,2.6-0.1,5.2-0.1,7.8c0.1,3.5,0.7,5.5,4.3,5.7c2,0.1,10.1,1.5,10.2-2
			c3,0.9,5.8,1.7,8.9,1.9c3.3,0.2,10,0.7,11.6-0.3c4,0,8-0.5,12-0.5c0.9,0.1,1.8,0.3,2.8,0.3s2-0.1,3-0.3c2.2,0,4.5,0.6,6.8,0.6
			c2.2,0,4.5,0.6,6.8,0.5c0.5,0,0.9-0.1,1.1-0.2c0.6,0.4,1.6,0.2,2.4,0.2c3.4,0,6.8-0.5,10.2-0.6c3.3,0,6.6,0.7,9.9,0.6
			c3.4,0,6.7-0.5,9.9-0.6c0,0,0,0,0.1,0c0.4,0.1,1,0.1,2.2,0.1h7.2c1.8,0,3.4,0.6,4-0.5c2.7,0.7,6.1,1.4,8.7,1.4
			c0.8,0,2-0.7,2.7-1.3c0.3-0.4,0.7-0.6,0.7-1.1c1-0.1,2-0.8,3-0.9c3.2-0.1,7.4,0.6,10.1,2.2c2.4,1.4,6.3,1.2,9,1.2
			c2.8,0,3.3-0.5,3.3-3.4c0-2.8-0.2-5.7-0.2-8.5s-0.2-5.6-0.2-8.5c0-2.8,0.6-5.7,0.6-8.5c0-2.1,0.7-4.2,0.7-6.4c0-0.9-0.1-2,0-2.9
			c4.1,0,8.1-0.8,12.2-0.8c2.4,0,4.8,0.4,7.3,0.4c0.5,0,0.8-5.9,0.8-6.5c0-1.6,0.1-3.2,0.1-4.8C172.2,33.9,171.8,33.3,170.1,33.4z
			 M3.7,10.1h8.5l12,23.9l12.9-23.9h8.5V44h-8.5V25.9L27.5,44h-7l-8.3-16.5V44H3.7V10.1z M31.1,82.4h-9.5L16.9,72h-4.7v10.4H3.7v-34
			h16.1c7.6,0,11.4,5.4,11.4,11.6c0,5-2.5,8.7-5.9,10.6L31.1,82.4z M31.6,45.8c1.3-0.3,2.6-0.7,4-0.9c0,0.4,0,0.7,0.2,1
			c-1.1,0-2.2,0-3.1,0.2C32.4,46,32,45.9,31.6,45.8z M49.7,82.4c-9.4,0-17-6.7-17-17c0-10.4,7.6-17,17-17s17,6.7,17,17
			C66.7,75.8,59.1,82.4,49.7,82.4z M66.6,46.5L66.6,46.5L66.6,46.5L66.6,46.5z M65.5,44c-9.4,0-16.1-5.6-16.1-17V10h8.5v17
			c0,6.1,2.7,9,7.6,9s7.6-4.1,7.6-9V10h8.5v17C81.7,36.4,74.9,44,65.5,44z M82.1,82.4H69.2v-34h12.9c9.4,0,17.3,7,17.3,17
			C99.4,74.8,91.5,82.4,82.1,82.4z M110.4,82.4h-8.5v-34h8.5V82.4z M97.1,44c-3.9,0-8.9-1.3-12.4-2.9l1-7.8
			c3.5,1.7,7.4,2.9,11.7,2.9c3.7,0,4.7-0.8,4.7-2.4c0-4.3-17.4-1.1-17.4-13.2c0-7,5.8-10.5,12.7-10.5c4.5,0,8.7,1.3,11.9,3l-1.5,7.7
			c-2.8-1.4-7-2.8-11-2.8c-2.6,0-4,1.1-4,2.3c0,4.5,17.6,1.1,17.6,12.7C110.4,38.9,106.1,44,97.1,44z M140.2,31.8
			c0,0.5-0.1,1.1-0.1,1.6C140,33.3,139.9,32.8,140.2,31.8z M125,3.5h8.4l-3.9,5.4h-7.6L125,3.5z M113.4,44V10.1h25.4v8.1h-16.9V23
			h14v8.1h-14V36h16.9v8H113.4z M137.2,47.5c-1.1,0.1-1.9,0.8-3,0.8c-2.1,0.1-4.3-0.3-6.4-0.5c-1.6-0.2-2.8-0.2-4.1-0.4
			c2.7,0,5.5-0.3,8.2-0.3c2,0,4-0.2,6-0.2C137.6,47.1,137.1,47,137.2,47.5z M148.2,82.4h-8.5l-17-19.6v19.6h-8.5v-34h7.5l18,21v-21
			h8.5V82.4z M168,18.1h-16.9V23h14v8.1h-14V36H168v8h-25.4V10.1H168V18.1z M17.7,56.5h-5.5v7.8h5.5c3.3,0,4.7-2,4.7-4.1
			C22.3,58.4,21,56.5,17.7,56.5z"/>
	</g>
	<g>
		<path class="st1" d="M12.1,27.5V44H3.7V10.1h8.5l12,23.9l12.9-23.9h8.5V44h-8.5V25.9L27.5,44h-7L12.1,27.5z"/>
		<path class="st1" d="M81.7,10.1v17c0,9.4-6.7,17-16.1,17s-16.1-5.6-16.1-17v-17H58v17c0,6.1,2.7,9,7.6,9s7.6-4.1,7.6-9v-17
			C73.2,10.1,81.7,10.1,81.7,10.1z"/>
		<path class="st1" d="M84.6,20.5c0-7,5.8-10.5,12.7-10.5c4.5,0,8.7,1.3,11.9,3l-1.5,7.7c-2.8-1.4-7-2.8-11-2.8c-2.6,0-4,1.1-4,2.3
			c0,4.5,17.6,1.1,17.6,12.7c0,5.8-4.3,10.9-13.4,10.9c-3.9,0-8.9-1.3-12.4-2.9l1-7.8C89,34.8,92.9,36,97.2,36
			c3.7,0,4.7-0.8,4.7-2.4C102,29.5,84.6,32.7,84.6,20.5z"/>
		<path class="st1" d="M113.4,44V10.1h25.4v8.1h-16.9V23h14v8.1h-14V36h16.9v8H113.4z M121.9,8.9l3.1-5.4h8.4l-3.9,5.4H121.9z"/>
		<path class="st1" d="M142.6,44V10.1H168v8.1h-16.9V23h14v8.1h-14V36H168v8H142.6z"/>
		<path class="st1" d="M3.7,48.4h16.1c7.6,0,11.4,5.4,11.4,11.6c0,5-2.5,8.7-5.9,10.6l5.9,11.8h-9.5L16.9,72h-4.7v10.4H3.7V48.4z
			 M12.1,56.5v7.8h5.5c3.3,0,4.7-2,4.7-4.1c0-1.8-1.4-3.7-4.7-3.7C17.6,56.5,12.1,56.5,12.1,56.5z"/>
		<path class="st1" d="M49.7,48.4c9.4,0,17,6.7,17,17c0,10.4-7.6,17-17,17s-17-6.7-17-17C32.7,55,40.3,48.4,49.7,48.4z M49.7,74.8
			c4.9,0,8.2-3.4,8.2-9.4c0-5.9-3.3-9.4-8.2-9.4s-8.2,3.4-8.2,9.4S44.8,74.8,49.7,74.8z"/>
		<path class="st1" d="M69.2,48.4h12.9c9.4,0,17.3,7,17.3,17c0,9.4-7.9,17-17.3,17H69.2V48.4z M77.7,56.5v17.8h4.4
			c6.1,0,9-4.4,9-8.9c0-4.7-3.1-8.9-9-8.9H77.7z"/>
		<path class="st1" d="M101.9,48.4h8.5v33.9h-8.5V48.4z"/>
		<path class="st1" d="M122.7,62.7v19.6h-8.5V48.4h7.5l18,21v-21h8.5v33.9h-8.5L122.7,62.7z"/>
	</g>
</g>
</svg>
